<svg width="1824" height="681" xmlns="http://www.w3.org/2000/svg" xmlns:xlink="http://www.w3.org/1999/xlink" xml:space="preserve" overflow="hidden"><g transform="translate(-282 -401)"><path d="M284.5 756.703C420.129 934.146 555.758 1111.59 698.758 1074.56 841.758 1037.52 992.129 786.011 1142.5 534.5" stroke="#000000" stroke-width="4.58333" stroke-miterlimit="8" fill="none" fill-rule="evenodd"/><path d="M1102.38 417.506C1104.17 417.506 1105.79 417.982 1107.26 418.934 1108.73 419.886 1109.5 421.318 1109.59 423.23 1109.54 424.815 1109.05 426.038 1108.12 426.898 1107.19 427.757 1106.17 428.193 1105.03 428.203 1104.22 428.201 1103.51 427.956 1102.91 427.467 1102.31 426.979 1102 426.257 1101.97 425.302 1101.92 424.592 1102.21 423.732 1102.84 422.722 1103.46 421.712 1104.66 421.08 1106.44 420.826 1105.6 420.105 1104.77 419.667 1103.95 419.51 1103.12 419.353 1102.6 419.291 1102.38 419.322 1101.5 419.341 1100.73 419.616 1100.06 420.146 1099.39 420.676 1098.86 421.345 1098.48 422.152 1098.3 422.54 1098.08 423.303 1097.81 424.443 1097.55 425.583 1097.29 426.764 1097.04 427.988 1096.79 429.211 1096.61 430.141 1096.49 430.778 1096.19 432.323 1095.98 433.498 1095.83 434.304 1095.69 435.11 1095.54 435.916 1095.4 436.722 1095.25 437.529 1095.03 438.704 1094.74 440.248L1101.63 440.248C1102.34 440.229 1102.89 440.267 1103.28 440.362 1103.67 440.457 1103.87 440.722 1103.87 441.158 1103.87 441.95 1103.67 442.432 1103.25 442.604 1102.84 442.777 1102.21 442.845 1101.39 442.811L1094.24 442.811 1089.26 469.129C1089.23 469.411 1089.01 470.48 1088.61 472.336 1088.21 474.192 1087.67 476.306 1086.98 478.678 1086.29 481.05 1085.5 483.151 1084.61 484.982 1083.85 486.695 1082.67 488.429 1081.07 490.185 1079.47 491.941 1077.53 492.888 1075.23 493.026 1073.45 493.021 1071.85 492.535 1070.43 491.567 1069.02 490.599 1068.27 489.177 1068.19 487.302 1068.24 485.717 1068.73 484.495 1069.66 483.635 1070.58 482.775 1071.61 482.34 1072.74 482.329 1073.56 482.331 1074.27 482.576 1074.87 483.065 1075.47 483.554 1075.78 484.275 1075.81 485.23 1075.86 485.945 1075.58 486.815 1074.96 487.841 1074.35 488.867 1073.11 489.488 1071.25 489.706 1072.09 490.427 1072.9 490.866 1073.71 491.022 1074.51 491.179 1075.02 491.242 1075.23 491.21 1076.65 491.167 1077.8 490.414 1078.69 488.953 1079.58 487.492 1080.3 485.584 1080.88 483.229 1081.45 480.873 1081.97 478.332 1082.45 475.605L1088.68 442.811 1083.2 442.811C1082.41 442.832 1081.83 442.79 1081.45 442.687 1081.06 442.584 1080.87 442.294 1080.88 441.819 1080.88 441.066 1081.1 440.608 1081.53 440.445 1081.96 440.281 1082.57 440.216 1083.37 440.248L1089.1 440.248C1089.75 436.824 1090.24 434.276 1090.58 432.603 1090.92 430.93 1091.17 429.741 1091.35 429.037 1091.52 428.334 1091.68 427.724 1091.84 427.208 1093.19 423.209 1094.9 420.565 1096.98 419.276 1099.06 417.987 1100.86 417.397 1102.38 417.506Z" fill-rule="evenodd"/><text fill="#000000" fill-opacity="0" font-family="Arial,Arial_MSFontService,sans-serif" font-size="75.5324" x="1068.19" y="483.584">𝑓</text><path d="M1134.8 413.932C1135.02 413.941 1135.21 414.027 1135.37 414.192 1135.53 414.356 1135.62 414.546 1135.63 414.762 1135.63 414.888 1135.59 415.009 1135.53 415.125 1135.46 415.241 1135.38 415.341 1135.3 415.426 1132.4 417.667 1129.88 420.784 1127.74 424.777 1125.59 428.771 1123.93 433.142 1122.74 437.891 1121.56 442.641 1120.96 447.27 1120.94 451.78L1120.94 458.752C1120.96 463.262 1121.56 467.891 1122.74 472.641 1123.93 477.39 1125.59 481.762 1127.74 485.755 1129.88 489.748 1132.4 492.865 1135.3 495.106 1135.38 495.191 1135.46 495.291 1135.53 495.407 1135.59 495.523 1135.63 495.644 1135.63 495.77 1135.62 495.986 1135.53 496.176 1135.37 496.341 1135.21 496.505 1135.02 496.591 1134.8 496.6 1134.63 496.586 1134.47 496.531 1134.3 496.434 1131.21 494.063 1128.31 490.837 1125.62 486.757 1122.93 482.677 1120.74 478.191 1119.06 473.299 1117.38 468.407 1116.52 463.558 1116.47 458.752L1116.47 451.78C1116.52 446.974 1117.38 442.125 1119.06 437.234 1120.74 432.342 1122.93 427.856 1125.62 423.775 1128.31 419.695 1131.21 416.469 1134.3 414.098 1134.47 414.001 1134.63 413.946 1134.8 413.932Z" fill-rule="evenodd"/><text fill="#000000" fill-opacity="0" font-family="Arial,Arial_MSFontService,sans-serif" font-size="82.668" x="1116.47" y="486.267">(</text><path d="M1158.5 439.335C1159.8 439.256 1161.34 439.621 1163.11 440.433 1164.89 441.244 1166.34 442.979 1167.47 445.639 1167.8 444.961 1168.35 444.133 1169.1 443.157 1169.86 442.181 1170.83 441.31 1172.01 440.546 1173.19 439.781 1174.58 439.378 1176.19 439.335 1177.17 439.323 1178.26 439.476 1179.44 439.795 1180.63 440.114 1181.65 440.672 1182.53 441.471 1183.4 442.27 1183.86 443.382 1183.9 444.81 1183.83 446.46 1183.31 447.676 1182.34 448.457 1181.38 449.237 1180.41 449.624 1179.42 449.617 1178.31 449.579 1177.51 449.261 1177.01 448.664 1176.51 448.066 1176.26 447.417 1176.27 446.716 1176.29 445.685 1176.67 444.742 1177.39 443.888 1178.12 443.033 1179.07 442.484 1180.25 442.24 1179.34 441.718 1178.49 441.401 1177.68 441.287 1176.88 441.174 1176.35 441.128 1176.11 441.151 1174.18 441.232 1172.65 441.919 1171.5 443.211 1170.35 444.503 1169.5 445.915 1168.95 447.447 1168.39 448.979 1168.04 450.146 1167.89 450.946L1165.06 462.324C1164.6 464.113 1164.25 465.559 1164.01 466.661 1163.77 467.764 1163.65 468.753 1163.65 469.626 1163.64 471.087 1163.99 472.353 1164.72 473.424 1165.44 474.495 1166.61 475.056 1168.22 475.108 1169.67 475.21 1171.5 474.507 1173.71 472.999 1175.92 471.491 1177.77 468.569 1179.26 464.234 1179.33 463.941 1179.44 463.717 1179.58 463.559 1179.72 463.402 1179.97 463.322 1180.33 463.32 1180.48 463.303 1180.68 463.338 1180.92 463.424 1181.17 463.511 1181.3 463.753 1181.33 464.151 1181.32 464.962 1180.81 466.374 1179.78 468.385 1178.76 470.397 1177.27 472.293 1175.29 474.074 1173.32 475.855 1170.91 476.805 1168.05 476.924 1165.56 476.853 1163.57 476.186 1162.07 474.922 1160.58 473.659 1159.58 472.225 1159.08 470.621 1159 470.855 1158.62 471.474 1157.93 472.476 1157.25 473.478 1156.27 474.453 1155.01 475.4 1153.74 476.347 1152.19 476.855 1150.37 476.924 1148.45 476.935 1146.69 476.5 1145.1 475.621 1143.51 474.741 1142.67 473.351 1142.57 471.45 1142.61 470.089 1143.06 468.956 1143.92 468.051 1144.78 467.147 1145.86 466.677 1147.13 466.642 1147.8 466.623 1148.47 466.827 1149.13 467.254 1149.79 467.68 1150.15 468.443 1150.2 469.543 1150.17 470.719 1149.78 471.703 1149.03 472.496 1148.28 473.289 1147.37 473.796 1146.3 474.019 1147.21 474.541 1148.05 474.859 1148.84 474.972 1149.63 475.086 1150.17 475.131 1150.45 475.108 1152.29 475.07 1153.9 474.274 1155.27 472.719 1156.63 471.165 1157.66 469.084 1158.34 466.476 1159.87 460.727 1161 456.301 1161.73 453.199 1162.46 450.098 1162.83 447.937 1162.82 446.716 1162.73 444.379 1162.18 442.851 1161.17 442.129 1160.16 441.408 1159.21 441.082 1158.34 441.151 1156.82 441.055 1154.96 441.768 1152.78 443.292 1150.59 444.815 1148.73 447.726 1147.21 452.025 1147.14 452.391 1147.02 452.636 1146.86 452.762 1146.7 452.889 1146.46 452.948 1146.14 452.939 1146.1 452.956 1145.93 452.922 1145.64 452.835 1145.35 452.749 1145.19 452.506 1145.15 452.108 1145.15 451.297 1145.67 449.886 1146.69 447.874 1147.72 445.863 1149.22 443.966 1151.2 442.185 1153.19 440.405 1155.62 439.455 1158.5 439.335Z" fill-rule="evenodd"/><text fill="#000000" fill-opacity="0" font-family="Arial,Arial_MSFontService,sans-serif" font-size="37.5995" x="1142.57" y="472.224">𝑥</text><path d="M1192.71 413.932C1192.87 413.946 1193.04 414.001 1193.21 414.098 1196.3 416.469 1199.19 419.695 1201.89 423.775 1204.58 427.856 1206.77 432.342 1208.45 437.234 1210.12 442.126 1210.99 446.974 1211.04 451.78L1211.04 458.752C1210.99 463.558 1210.12 468.407 1208.45 473.299 1206.77 478.191 1204.58 482.677 1201.89 486.757 1199.19 490.837 1196.3 494.063 1193.21 496.434 1193.04 496.531 1192.87 496.586 1192.71 496.6 1192.49 496.591 1192.3 496.505 1192.14 496.341 1191.97 496.176 1191.89 495.986 1191.88 495.77 1191.88 495.644 1191.92 495.523 1191.98 495.407 1192.05 495.291 1192.12 495.191 1192.21 495.106 1195.1 492.865 1197.62 489.748 1199.77 485.755 1201.91 481.762 1203.58 477.39 1204.76 472.641 1205.95 467.891 1206.55 463.262 1206.57 458.752L1206.57 451.78C1206.55 447.27 1205.95 442.641 1204.76 437.891 1203.58 433.142 1201.91 428.771 1199.77 424.777 1197.62 420.784 1195.1 417.667 1192.21 415.426 1192.12 415.341 1192.05 415.241 1191.98 415.125 1191.92 415.009 1191.88 414.888 1191.88 414.762 1191.89 414.546 1191.97 414.356 1192.14 414.192 1192.3 414.027 1192.49 413.941 1192.71 413.932Z" fill-rule="evenodd"/><text fill="#000000" fill-opacity="0" font-family="Arial,Arial_MSFontService,sans-serif" font-size="82.668" x="1191.88" y="486.267">)</text><path d="M0 0 604.755 163.854" stroke="#0000FF" stroke-width="4.58333" stroke-miterlimit="8" fill="none" fill-rule="evenodd" transform="matrix(1 0 0 -1 406.5 911.354)"/><path d="M1940.85 417.506C1942.63 417.506 1944.26 417.982 1945.73 418.934 1947.19 419.886 1947.97 421.318 1948.06 423.23 1948 424.815 1947.51 426.038 1946.59 426.898 1945.66 427.757 1944.63 428.193 1943.5 428.203 1942.68 428.201 1941.97 427.956 1941.38 427.467 1940.78 426.979 1940.46 426.257 1940.43 425.302 1940.39 424.592 1940.68 423.732 1941.3 422.722 1941.92 421.712 1943.13 421.08 1944.91 420.826 1944.07 420.105 1943.24 419.667 1942.41 419.51 1941.58 419.353 1941.06 419.291 1940.85 419.322 1939.97 419.341 1939.19 419.616 1938.52 420.146 1937.85 420.676 1937.33 421.345 1936.94 422.152 1936.77 422.54 1936.55 423.303 1936.28 424.443 1936.01 425.583 1935.75 426.764 1935.51 427.988 1935.26 429.211 1935.07 430.141 1934.95 430.778 1934.66 432.323 1934.44 433.498 1934.3 434.304 1934.15 435.11 1934.01 435.916 1933.86 436.722 1933.72 437.529 1933.5 438.704 1933.21 440.248L1940.1 440.248C1940.81 440.229 1941.36 440.267 1941.75 440.362 1942.14 440.457 1942.33 440.722 1942.34 441.158 1942.34 441.95 1942.13 442.432 1941.72 442.604 1941.3 442.777 1940.68 442.845 1939.85 442.811L1932.71 442.811 1927.73 469.129C1927.69 469.411 1927.48 470.48 1927.08 472.336 1926.68 474.192 1926.13 476.306 1925.45 478.678 1924.76 481.05 1923.97 483.151 1923.08 484.982 1922.32 486.695 1921.14 488.429 1919.54 490.185 1917.94 491.941 1915.99 492.888 1913.7 493.026 1911.92 493.021 1910.32 492.535 1908.9 491.567 1907.48 490.599 1906.73 489.177 1906.65 487.302 1906.71 485.717 1907.2 484.495 1908.12 483.635 1909.05 482.775 1910.08 482.34 1911.21 482.329 1912.03 482.331 1912.73 482.576 1913.33 483.065 1913.93 483.554 1914.25 484.275 1914.28 485.23 1914.33 485.945 1914.04 486.815 1913.43 487.841 1912.81 488.867 1911.58 489.488 1909.72 489.706 1910.55 490.427 1911.37 490.866 1912.17 491.022 1912.98 491.179 1913.48 491.242 1913.7 491.21 1915.12 491.167 1916.27 490.414 1917.16 488.953 1918.04 487.492 1918.77 485.584 1919.34 483.229 1919.91 480.873 1920.44 478.332 1920.92 475.605L1927.15 442.811 1921.67 442.811C1920.88 442.832 1920.3 442.79 1919.91 442.687 1919.53 442.584 1919.34 442.294 1919.34 441.819 1919.35 441.066 1919.57 440.608 1920 440.445 1920.43 440.281 1921.04 440.216 1921.83 440.248L1927.56 440.248C1928.21 436.824 1928.71 434.276 1929.05 432.603 1929.39 430.93 1929.64 429.741 1929.81 429.037 1929.99 428.334 1930.15 427.724 1930.3 427.208 1931.66 423.209 1933.37 420.565 1935.45 419.276 1937.53 417.987 1939.33 417.397 1940.85 417.506Z" fill-rule="evenodd"/><text fill="#000000" fill-opacity="0" font-family="Arial,Arial_MSFontService,sans-serif" font-size="75.5324" x="1906.65" y="483.584">𝑓</text><path d="M1973.27 413.932C1973.48 413.941 1973.67 414.027 1973.84 414.192 1974 414.356 1974.09 414.546 1974.1 414.762 1974.09 414.888 1974.06 415.009 1973.99 415.125 1973.93 415.241 1973.85 415.341 1973.76 415.426 1970.87 417.667 1968.35 420.784 1966.2 424.777 1964.06 428.771 1962.4 433.142 1961.21 437.891 1960.02 442.641 1959.42 447.27 1959.41 451.78L1959.41 458.752C1959.42 463.262 1960.02 467.891 1961.21 472.641 1962.4 477.39 1964.06 481.762 1966.2 485.755 1968.35 489.748 1970.87 492.865 1973.76 495.106 1973.85 495.191 1973.93 495.291 1973.99 495.407 1974.06 495.523 1974.09 495.644 1974.1 495.77 1974.09 495.986 1974 496.176 1973.84 496.341 1973.67 496.505 1973.48 496.591 1973.27 496.6 1973.1 496.586 1972.93 496.531 1972.77 496.434 1969.67 494.063 1966.78 490.837 1964.09 486.757 1961.39 482.677 1959.21 478.191 1957.53 473.299 1955.85 468.407 1954.98 463.558 1954.93 458.752L1954.93 451.78C1954.98 446.974 1955.85 442.125 1957.53 437.234 1959.21 432.342 1961.39 427.856 1964.09 423.775 1966.78 419.695 1969.67 416.469 1972.77 414.098 1972.93 414.001 1973.1 413.946 1973.27 413.932Z" fill-rule="evenodd"/><text fill="#000000" fill-opacity="0" font-family="Arial,Arial_MSFontService,sans-serif" font-size="82.668" x="1954.93" y="486.267">(</text><path d="M1996.97 439.335C1998.27 439.256 1999.8 439.621 2001.58 440.433 2003.35 441.244 2004.81 442.979 2005.94 445.639 2006.27 444.961 2006.81 444.133 2007.57 443.157 2008.33 442.181 2009.3 441.31 2010.48 440.546 2011.66 439.781 2013.05 439.378 2014.66 439.335 2015.64 439.323 2016.72 439.476 2017.91 439.795 2019.09 440.114 2020.12 440.672 2020.99 441.471 2021.86 442.27 2022.32 443.382 2022.36 444.81 2022.29 446.46 2021.77 447.676 2020.81 448.457 2019.85 449.237 2018.87 449.624 2017.89 449.617 2016.78 449.579 2015.97 449.261 2015.47 448.664 2014.98 448.066 2014.73 447.417 2014.74 446.716 2014.76 445.685 2015.13 444.742 2015.86 443.888 2016.58 443.033 2017.54 442.484 2018.72 442.24 2017.81 441.718 2016.95 441.401 2016.15 441.287 2015.34 441.174 2014.82 441.128 2014.57 441.151 2012.65 441.232 2011.11 441.919 2009.97 443.211 2008.82 444.503 2007.97 445.915 2007.41 447.447 2006.86 448.979 2006.5 450.146 2006.35 450.946L2003.53 462.324C2003.07 464.113 2002.72 465.559 2002.48 466.661 2002.24 467.764 2002.12 468.753 2002.12 469.626 2002.1 471.087 2002.46 472.353 2003.19 473.424 2003.91 474.495 2005.08 475.056 2006.68 475.108 2008.13 475.21 2009.97 474.507 2012.17 472.999 2014.38 471.491 2016.23 468.569 2017.73 464.234 2017.8 463.941 2017.9 463.717 2018.05 463.559 2018.19 463.402 2018.44 463.322 2018.8 463.32 2018.95 463.303 2019.15 463.338 2019.39 463.424 2019.63 463.511 2019.77 463.753 2019.79 464.151 2019.79 464.962 2019.27 466.374 2018.25 468.385 2017.23 470.397 2015.73 472.293 2013.76 474.074 2011.79 475.855 2009.37 476.805 2006.52 476.924 2004.03 476.853 2002.03 476.186 2000.54 474.922 1999.05 473.659 1998.05 472.225 1997.55 470.621 1997.47 470.855 1997.08 471.474 1996.4 472.476 1995.71 473.478 1994.74 474.453 1993.47 475.4 1992.21 476.347 1990.66 476.855 1988.83 476.924 1986.91 476.935 1985.16 476.5 1983.57 475.621 1981.98 474.741 1981.14 473.351 1981.04 471.45 1981.08 470.089 1981.52 468.956 1982.39 468.051 1983.25 467.147 1984.32 466.677 1985.6 466.642 1986.27 466.623 1986.94 466.827 1987.6 467.254 1988.26 467.68 1988.62 468.443 1988.67 469.543 1988.63 470.719 1988.24 471.703 1987.5 472.496 1986.75 473.289 1985.84 473.796 1984.77 474.019 1985.67 474.541 1986.52 474.859 1987.31 474.972 1988.1 475.086 1988.63 475.131 1988.92 475.108 1990.76 475.07 1992.37 474.274 1993.73 472.719 1995.1 471.165 1996.12 469.084 1996.8 466.476 1998.34 460.727 1999.47 456.301 2000.2 453.199 2000.93 450.098 2001.29 447.937 2001.29 446.716 2001.2 444.379 2000.65 442.851 1999.64 442.129 1998.63 441.408 1997.68 441.082 1996.8 441.151 1995.28 441.055 1993.43 441.768 1991.24 443.292 1989.05 444.815 1987.2 447.726 1985.68 452.025 1985.6 452.391 1985.49 452.636 1985.33 452.762 1985.17 452.889 1984.93 452.948 1984.6 452.939 1984.56 452.956 1984.4 452.922 1984.11 452.835 1983.82 452.749 1983.66 452.506 1983.61 452.108 1983.62 451.297 1984.13 449.886 1985.16 447.874 1986.18 445.863 1987.69 443.966 1989.67 442.185 1991.65 440.405 1994.09 439.455 1996.97 439.335Z" fill-rule="evenodd"/><text fill="#000000" fill-opacity="0" font-family="Arial,Arial_MSFontService,sans-serif" font-size="37.5995" x="1981.04" y="472.224">𝑥</text><path d="M2031.17 413.932C2031.34 413.946 2031.51 414.001 2031.67 414.098 2034.77 416.469 2037.66 419.695 2040.35 423.775 2043.05 427.856 2045.23 432.342 2046.91 437.234 2048.59 442.126 2049.46 446.974 2049.51 451.78L2049.51 458.752C2049.46 463.558 2048.59 468.407 2046.91 473.299 2045.23 478.191 2043.05 482.677 2040.35 486.757 2037.66 490.837 2034.77 494.063 2031.67 496.434 2031.51 496.531 2031.34 496.586 2031.17 496.6 2030.96 496.591 2030.77 496.505 2030.6 496.341 2030.44 496.176 2030.35 495.986 2030.34 495.77 2030.35 495.644 2030.38 495.523 2030.45 495.407 2030.51 495.291 2030.59 495.191 2030.68 495.106 2033.57 492.865 2036.09 489.748 2038.23 485.755 2040.38 481.762 2042.04 477.39 2043.23 472.641 2044.42 467.891 2045.02 463.262 2045.03 458.752L2045.03 451.78C2045.02 447.27 2044.42 442.641 2043.23 437.891 2042.04 433.142 2040.38 428.771 2038.23 424.777 2036.09 420.784 2033.57 417.667 2030.68 415.426 2030.59 415.341 2030.51 415.241 2030.45 415.125 2030.38 415.009 2030.35 414.888 2030.34 414.762 2030.35 414.546 2030.44 414.356 2030.6 414.192 2030.77 414.027 2030.96 413.941 2031.17 413.932Z" fill-rule="evenodd"/><text fill="#000000" fill-opacity="0" font-family="Arial,Arial_MSFontService,sans-serif" font-size="82.668" x="2030.34" y="486.267">)</text><path d="M1184.5 1079.5C1229.34 972.297 1274.18 865.094 1332.18 787.061 1390.19 709.028 1433.31 653.395 1532.53 611.302 1631.75 569.208 1779.63 551.854 1927.5 534.5" stroke="#172C51" stroke-width="4.58333" stroke-miterlimit="8" fill="none" fill-rule="evenodd"/><path d="M0 0 521.354 358.646" stroke="#0000FF" stroke-width="4.58333" stroke-miterlimit="8" fill="none" fill-rule="evenodd" transform="matrix(1 0 0 -1 1259.5 911.146)"/></g></svg>