<svg width="1827" height="912" xmlns="http://www.w3.org/2000/svg" xmlns:xlink="http://www.w3.org/1999/xlink" xml:space="preserve" overflow="hidden"><g transform="translate(-422 -375)"><path d="M1475 868 1475 1158 1145 1158 1145 919.329 1158.63 932.437C1215.04 987.653 1272.31 1042.1 1327.68 1028.21 1369.2 1017.8 1413.29 961.266 1457.01 895.762Z" fill="#D9D9D9" fill-rule="evenodd"/><path d="M704.5 1158.01C811.544 1030.68 890.845 854.288 994.698 832.699 1098.55 811.11 1216.89 1056.2 1327.61 1028.47 1438.34 1000.75 1567.24 645.755 1659.06 666.363 1750.88 686.971 1826.09 935.493 1899.5 1158.5" stroke="#000000" stroke-width="4.58333" stroke-miterlimit="8" fill="none" fill-rule="evenodd"/><path d="M548.5 1156.21 2103.03 1156.21 2103.03 1160.79 548.5 1160.79ZM2076.67 1140.48 2107.57 1158.5 2076.67 1176.52C2075.58 1177.16 2074.18 1176.79 2073.54 1175.7 2072.9 1174.6 2073.27 1173.2 2074.36 1172.56L2101.86 1156.52 2101.86 1160.48 2074.36 1144.44C2073.27 1143.8 2072.9 1142.4 2073.54 1141.3 2074.18 1140.21 2075.58 1139.84 2076.67 1140.48Z"/><path d="M2.29167-1.27315e-06 2.29203 645.069-2.29131 645.069-2.29167 1.27315e-06ZM18.0215 618.724 0.000360255 649.617-18.0208 618.724C-18.6585 617.63-18.2893 616.227-17.196 615.589-16.1028 614.952-14.6996 615.321-14.0618 616.414L1.97985 643.914-1.97914 643.914 14.0625 616.414C14.7002 615.321 16.1035 614.952 17.1967 615.589 18.29 616.227 18.6592 617.63 18.0215 618.724Z" transform="matrix(1 0 0 -1 548.5 1158.11)"/><path d="M501.085 419.192C500.369 419.163 499.435 419.367 498.283 419.804 497.131 420.242 495.823 421.09 494.36 422.347 493.562 422.994 492.729 423.838 491.858 424.879 490.988 425.921 490.383 427.014 490.042 428.159L485.974 444.432C485.854 444.923 485.782 445.269 485.756 445.47 485.73 445.67 485.719 445.767 485.725 445.76 485.704 446.008 485.865 446.721 486.207 447.897 486.55 449.074 487.197 450.223 488.148 451.344 489.099 452.466 490.478 453.067 492.284 453.149 493.863 453.156 495.541 452.458 497.318 451.053 499.094 449.649 500.71 447.497 502.164 444.598 502.687 443.478 503.275 441.852 503.926 439.721 504.578 437.589 505.147 435.361 505.633 433.036 506.119 430.711 506.374 428.697 506.399 426.996 506.385 424.528 505.915 422.615 504.987 421.257 504.06 419.9 502.759 419.211 501.085 419.192ZM482.985 417.376C484.588 417.355 486.114 417.831 487.562 418.803 489.009 419.776 489.975 421.372 490.457 423.592 491.85 421.917 493.486 420.476 495.366 419.27 497.247 418.064 499.236 417.433 501.334 417.376 504.553 417.442 507.18 418.678 509.215 421.086 511.249 423.494 512.299 426.682 512.365 430.65 512.296 434.792 511.281 438.701 509.32 442.378 507.359 446.054 504.863 449.053 501.832 451.373 498.801 453.694 495.646 454.891 492.367 454.965 490.264 454.895 488.596 454.312 487.365 453.217 486.133 452.121 485.254 450.937 484.728 449.662 484.566 450.244 484.273 451.354 483.847 452.992 483.422 454.63 482.965 456.422 482.476 458.367 481.987 460.312 481.566 462.037 481.214 463.54 480.861 465.043 480.677 465.951 480.66 466.262 480.573 466.645 480.746 466.96 481.179 467.207 481.611 467.455 482.822 467.583 484.811 467.591 485.403 467.573 485.88 467.61 486.244 467.705 486.607 467.8 486.794 468.065 486.804 468.501 486.768 469.293 486.571 469.775 486.212 469.947 485.854 470.12 485.553 470.189 485.31 470.154 483.976 470.144 482.616 470.102 481.231 470.03 479.845 469.958 478.465 469.916 477.09 469.906 475.926 469.916 474.757 469.958 473.581 470.03 472.405 470.102 471.254 470.144 470.128 470.154 469.792 470.154 469.53 470.071 469.339 469.906 469.149 469.741 469.052 469.493 469.049 469.162 469.066 468.41 469.26 467.951 469.63 467.788 470 467.624 470.443 467.559 470.958 467.591 472.7 467.626 473.82 467.411 474.317 466.948 474.815 466.484 475.187 465.563 475.435 464.186L484.728 427.246C484.898 426.571 485.036 425.928 485.143 425.315 485.251 424.703 485.306 423.935 485.31 423.011 485.29 421.472 485.038 420.441 484.552 419.919 484.066 419.396 483.46 419.154 482.736 419.192 481.264 419.235 480.056 420.145 479.113 421.922 478.171 423.698 477.358 426.081 476.674 429.072 476.451 429.951 476.258 430.497 476.096 430.712 475.934 430.926 475.659 431.016 475.27 430.982 475.228 430.999 475.063 430.964 474.774 430.878 474.484 430.791 474.319 430.549 474.278 430.151 474.282 430.026 474.393 429.502 474.612 428.58 474.83 427.658 475.131 426.593 475.515 425.385 475.898 424.177 476.34 423.081 476.841 422.098 477.185 421.247 477.825 420.274 478.761 419.177 479.696 418.08 481.104 417.48 482.985 417.376Z" fill-rule="evenodd"/><text fill="#000000" fill-opacity="0" font-family="Arial,Arial_MSFontService,sans-serif" font-size="52.7869" x="469.049" y="463.564">𝑝</text><path d="M539.671 391.973C539.887 391.982 540.077 392.068 540.241 392.233 540.405 392.397 540.492 392.587 540.5 392.803 540.497 392.93 540.462 393.051 540.397 393.166 540.331 393.282 540.255 393.383 540.169 393.467 537.274 395.708 534.754 398.825 532.609 402.819 530.465 406.812 528.8 411.183 527.614 415.933 526.428 420.682 525.827 425.312 525.81 429.821L525.81 436.793C525.827 441.303 526.428 445.932 527.614 450.682 528.8 455.431 530.465 459.803 532.609 463.796 534.754 467.789 537.274 470.906 540.169 473.147 540.255 473.232 540.331 473.332 540.397 473.448 540.462 473.564 540.497 473.685 540.5 473.811 540.492 474.027 540.405 474.218 540.241 474.382 540.077 474.546 539.887 474.633 539.671 474.641 539.505 474.627 539.339 474.572 539.173 474.475 536.078 472.104 533.184 468.878 530.491 464.798 527.798 460.718 525.612 456.232 523.933 451.34 522.254 446.448 521.389 441.599 521.338 436.793L521.338 429.821C521.389 425.015 522.254 420.167 523.933 415.275 525.612 410.383 527.798 405.897 530.491 401.816 533.184 397.736 536.078 394.51 539.173 392.139 539.339 392.042 539.505 391.987 539.671 391.973Z" fill-rule="evenodd"/><text fill="#000000" fill-opacity="0" font-family="Arial,Arial_MSFontService,sans-serif" font-size="82.668" x="521.338" y="464.308">(</text><path d="M563.375 417.376C564.672 417.297 566.208 417.663 567.983 418.474 569.758 419.285 571.211 421.02 572.342 423.68 572.674 423.002 573.218 422.175 573.975 421.198 574.731 420.222 575.7 419.352 576.881 418.587 578.062 417.823 579.455 417.419 581.06 417.376 582.042 417.364 583.126 417.517 584.311 417.836 585.496 418.155 586.525 418.713 587.397 419.512 588.268 420.311 588.726 421.424 588.769 422.851 588.696 424.502 588.178 425.717 587.215 426.498 586.251 427.278 585.277 427.665 584.293 427.658 583.183 427.62 582.378 427.302 581.879 426.705 581.38 426.107 581.135 425.458 581.143 424.757 581.164 423.726 581.537 422.784 582.262 421.929 582.988 421.074 583.941 420.525 585.122 420.281 584.215 419.759 583.358 419.442 582.553 419.328 581.747 419.215 581.222 419.169 580.976 419.192 579.054 419.273 577.519 419.96 576.372 421.252 575.225 422.544 574.374 423.957 573.817 425.489 573.26 427.021 572.907 428.187 572.756 428.987L569.933 440.365C569.475 442.154 569.125 443.6 568.885 444.703 568.644 445.805 568.523 446.794 568.522 447.667 568.509 449.129 568.866 450.395 569.591 451.465 570.315 452.536 571.481 453.097 573.088 453.149 574.539 453.251 576.37 452.548 578.578 451.04 580.787 449.532 582.638 446.61 584.131 442.275 584.202 441.983 584.308 441.758 584.451 441.6 584.594 441.443 584.845 441.363 585.205 441.361 585.354 441.344 585.551 441.379 585.793 441.465 586.036 441.552 586.17 441.794 586.196 442.192 586.19 443.003 585.677 444.415 584.655 446.426 583.633 448.438 582.136 450.334 580.164 452.115 578.192 453.896 575.778 454.846 572.922 454.965 570.431 454.894 568.439 454.227 566.944 452.964 565.449 451.7 564.453 450.266 563.955 448.662 563.87 448.896 563.486 449.515 562.802 450.517 562.118 451.519 561.143 452.494 559.877 453.441 558.612 454.389 557.065 454.896 555.237 454.965 553.317 454.976 551.562 454.542 549.973 453.662 548.385 452.782 547.542 451.392 547.445 449.491 547.48 448.13 547.929 446.997 548.792 446.092 549.656 445.188 550.726 444.718 552.004 444.683 552.676 444.664 553.342 444.868 554.004 445.295 554.665 445.721 555.021 446.484 555.071 447.584 555.038 448.76 554.648 449.745 553.9 450.537 553.152 451.33 552.244 451.837 551.174 452.06 552.077 452.582 552.923 452.9 553.713 453.013 554.503 453.127 555.039 453.172 555.321 453.149 557.165 453.111 558.77 452.315 560.137 450.761 561.503 449.206 562.527 447.125 563.209 444.517 564.74 438.768 565.871 434.342 566.603 431.241 567.334 428.139 567.698 425.978 567.692 424.757 567.604 422.421 567.054 420.892 566.042 420.171 565.03 419.449 564.086 419.123 563.209 419.192 561.687 419.096 559.832 419.809 557.646 421.333 555.459 422.856 553.605 425.768 552.083 430.067 552.007 430.432 551.89 430.677 551.732 430.804 551.574 430.93 551.333 430.989 551.009 430.98 550.968 430.997 550.803 430.963 550.514 430.876 550.225 430.79 550.06 430.548 550.018 430.15 550.023 429.338 550.538 427.927 551.562 425.915 552.586 423.904 554.09 422.008 556.074 420.227 558.058 418.446 560.491 417.496 563.375 417.376Z" fill-rule="evenodd"/><text fill="#000000" fill-opacity="0" font-family="Arial,Arial_MSFontService,sans-serif" font-size="37.5995" x="547.445" y="450.265">𝑥</text><path d="M597.578 391.973C597.744 391.987 597.91 392.042 598.076 392.139 601.171 394.51 604.065 397.736 606.758 401.816 609.451 405.897 611.637 410.383 613.316 415.275 614.995 420.167 615.86 425.015 615.911 429.821L615.911 436.793C615.86 441.599 614.995 446.448 613.316 451.34 611.637 456.232 609.451 460.718 606.758 464.798 604.065 468.878 601.171 472.104 598.076 474.475 597.91 474.572 597.744 474.627 597.578 474.641 597.362 474.633 597.172 474.546 597.008 474.382 596.843 474.218 596.757 474.027 596.748 473.811 596.752 473.685 596.786 473.564 596.852 473.448 596.918 473.332 596.994 473.232 597.08 473.147 599.975 470.906 602.495 467.789 604.639 463.796 606.784 459.803 608.449 455.431 609.635 450.682 610.82 445.932 611.422 441.303 611.439 436.793L611.439 429.821C611.422 425.312 610.82 420.682 609.635 415.933 608.449 411.183 606.784 406.812 604.639 402.819 602.495 398.825 599.975 395.708 597.08 393.467 596.994 393.383 596.918 393.282 596.852 393.166 596.786 393.051 596.752 392.93 596.748 392.803 596.757 392.587 596.843 392.397 597.008 392.233 597.172 392.068 597.362 391.982 597.578 391.973Z" fill-rule="evenodd"/><text fill="#000000" fill-opacity="0" font-family="Arial,Arial_MSFontService,sans-serif" font-size="82.668" x="596.748" y="464.308">)</text><path d="M2172.76 1134.12C2174.05 1134.04 2175.59 1134.4 2177.36 1135.22 2179.14 1136.03 2180.59 1137.76 2181.72 1140.42 2182.05 1139.74 2182.6 1138.92 2183.36 1137.94 2184.11 1136.96 2185.08 1136.09 2186.26 1135.33 2187.44 1134.56 2188.84 1134.16 2190.44 1134.12 2191.42 1134.11 2192.51 1134.26 2193.69 1134.58 2194.88 1134.9 2195.91 1135.46 2196.78 1136.25 2197.65 1137.05 2198.11 1138.17 2198.15 1139.59 2198.08 1141.24 2197.56 1142.46 2196.6 1143.24 2195.63 1144.02 2194.66 1144.41 2193.67 1144.4 2192.56 1144.36 2191.76 1144.04 2191.26 1143.45 2190.76 1142.85 2190.52 1142.2 2190.52 1141.5 2190.54 1140.47 2190.92 1139.53 2191.64 1138.67 2192.37 1137.82 2193.32 1137.27 2194.5 1137.02 2193.6 1136.5 2192.74 1136.18 2191.93 1136.07 2191.13 1135.96 2190.6 1135.91 2190.36 1135.93 2188.43 1136.02 2186.9 1136.7 2185.75 1137.99 2184.61 1139.29 2183.75 1140.7 2183.2 1142.23 2182.64 1143.76 2182.29 1144.93 2182.14 1145.73L2179.31 1157.11C2178.86 1158.9 2178.51 1160.34 2178.27 1161.44 2178.02 1162.55 2177.9 1163.54 2177.9 1164.41 2177.89 1165.87 2178.25 1167.14 2178.97 1168.21 2179.7 1169.28 2180.86 1169.84 2182.47 1169.89 2183.92 1169.99 2185.75 1169.29 2187.96 1167.78 2190.17 1166.27 2192.02 1163.35 2193.51 1159.02 2193.58 1158.72 2193.69 1158.5 2193.83 1158.34 2193.97 1158.19 2194.23 1158.11 2194.59 1158.1 2194.74 1158.09 2194.93 1158.12 2195.17 1158.21 2195.42 1158.29 2195.55 1158.54 2195.58 1158.93 2195.57 1159.75 2195.06 1161.16 2194.04 1163.17 2193.01 1165.18 2191.52 1167.08 2189.54 1168.86 2187.57 1170.64 2185.16 1171.59 2182.3 1171.71 2179.81 1171.64 2177.82 1170.97 2176.32 1169.71 2174.83 1168.44 2173.83 1167.01 2173.34 1165.4 2173.25 1165.64 2172.87 1166.26 2172.18 1167.26 2171.5 1168.26 2170.52 1169.24 2169.26 1170.18 2167.99 1171.13 2166.45 1171.64 2164.62 1171.71 2162.7 1171.72 2160.94 1171.28 2159.35 1170.4 2157.77 1169.52 2156.92 1168.13 2156.83 1166.23 2156.86 1164.87 2157.31 1163.74 2158.17 1162.83 2159.04 1161.93 2160.11 1161.46 2161.38 1161.43 2162.06 1161.41 2162.72 1161.61 2163.38 1162.04 2164.05 1162.46 2164.4 1163.23 2164.45 1164.33 2164.42 1165.5 2164.03 1166.49 2163.28 1167.28 2162.53 1168.07 2161.62 1168.58 2160.55 1168.8 2161.46 1169.32 2162.3 1169.64 2163.09 1169.76 2163.88 1169.87 2164.42 1169.91 2164.7 1169.89 2166.55 1169.85 2168.15 1169.06 2169.52 1167.5 2170.88 1165.95 2171.91 1163.87 2172.59 1161.26 2174.12 1155.51 2175.25 1151.08 2175.98 1147.98 2176.71 1144.88 2177.08 1142.72 2177.07 1141.5 2176.98 1139.16 2176.43 1137.63 2175.42 1136.91 2174.41 1136.19 2173.47 1135.87 2172.59 1135.93 2171.07 1135.84 2169.21 1136.55 2167.03 1138.08 2164.84 1139.6 2162.99 1142.51 2161.46 1146.81 2161.39 1147.17 2161.27 1147.42 2161.11 1147.55 2160.95 1147.67 2160.71 1147.73 2160.39 1147.72 2160.35 1147.74 2160.18 1147.71 2159.89 1147.62 2159.61 1147.53 2159.44 1147.29 2159.4 1146.89 2159.4 1146.08 2159.92 1144.67 2160.94 1142.66 2161.97 1140.65 2163.47 1138.75 2165.45 1136.97 2167.44 1135.19 2169.87 1134.24 2172.76 1134.12Z" fill-rule="evenodd"/><text fill="#000000" fill-opacity="0" font-family="Arial,Arial_MSFontService,sans-serif" font-size="37.5996" x="2156.83" y="1167.01">𝑥</text><path d="M1130.32 1213.83 1130.32 1222.96C1130.7 1221.72 1131.31 1220.4 1132.14 1219 1132.97 1217.61 1134.08 1216.41 1135.46 1215.41 1136.83 1214.4 1138.53 1213.88 1140.54 1213.83 1142.36 1213.88 1143.82 1214.39 1144.94 1215.36 1146.06 1216.34 1146.64 1217.51 1146.67 1218.89 1146.62 1220.2 1146.21 1221.14 1145.45 1221.71 1144.69 1222.28 1143.91 1222.55 1143.11 1222.54 1142.16 1222.54 1141.34 1222.23 1140.64 1221.63 1139.95 1221.02 1139.58 1220.14 1139.55 1218.97 1139.61 1217.9 1139.9 1217.1 1140.41 1216.57 1140.92 1216.05 1141.26 1215.77 1141.45 1215.73 1141.38 1215.69 1141.28 1215.67 1141.15 1215.66 1141.03 1215.65 1140.82 1215.65 1140.54 1215.65 1137.37 1215.79 1134.95 1217.36 1133.27 1220.37 1131.6 1223.38 1130.75 1227.01 1130.74 1231.26L1130.74 1244.04C1130.62 1245.51 1130.9 1246.54 1131.59 1247.12 1132.28 1247.69 1134.1 1247.97 1137.05 1247.95L1138.8 1247.95 1138.8 1250.51C1137.11 1250.39 1135.35 1250.32 1133.52 1250.29 1131.69 1250.27 1129.94 1250.26 1128.25 1250.26L1118.8 1250.51 1118.8 1247.95C1121.5 1248.02 1123.27 1247.87 1124.12 1247.48 1124.96 1247.09 1125.35 1246 1125.27 1244.21L1125.27 1221.96C1125.36 1219.99 1125.01 1218.7 1124.21 1218.11 1123.41 1217.52 1121.61 1217.25 1118.8 1217.31L1118.8 1214.75ZM1083.12 1196.39C1081.25 1196.36 1080.08 1196.57 1079.62 1197.03 1079.17 1197.48 1078.98 1198.38 1079.05 1199.71L1079.05 1222.13 1090.51 1222.13C1094.83 1222.05 1097.93 1221.22 1099.8 1219.66 1101.68 1218.1 1102.82 1216.33 1103.23 1214.33 1103.63 1212.34 1103.8 1210.65 1103.72 1209.26 1103.8 1207.82 1103.63 1206.11 1103.23 1204.12 1102.82 1202.13 1101.68 1200.36 1099.8 1198.83 1097.93 1197.29 1094.83 1196.48 1090.51 1196.39ZM1063.38 1193.83 1092.67 1193.83C1098.46 1193.96 1103.15 1195.52 1106.73 1198.5 1110.31 1201.47 1112.15 1205.06 1112.25 1209.26 1112.2 1212.06 1111.31 1214.59 1109.56 1216.85 1107.82 1219.1 1105.52 1220.9 1102.67 1222.23 1099.82 1223.57 1096.71 1224.25 1093.34 1224.28L1079.3 1224.28 1079.3 1244.04C1079.18 1245.51 1079.47 1246.54 1080.19 1247.12 1080.9 1247.69 1082.79 1247.97 1085.86 1247.95L1087.86 1247.95 1087.86 1250.51C1086.27 1250.39 1084.25 1250.32 1081.81 1250.29 1079.36 1250.27 1077.28 1250.26 1075.57 1250.26 1073.87 1250.26 1071.81 1250.27 1069.38 1250.29 1066.96 1250.32 1064.96 1250.39 1063.38 1250.51L1063.38 1247.95 1065.37 1247.95C1068.44 1247.97 1070.33 1247.69 1071.04 1247.12 1071.76 1246.54 1072.05 1245.51 1071.93 1244.04L1071.93 1200.3C1072.05 1198.83 1071.76 1197.8 1071.04 1197.22 1070.33 1196.65 1068.44 1196.37 1065.37 1196.39L1063.38 1196.39Z" fill-rule="evenodd"/><text fill="#000000" fill-opacity="0" font-family="Arial,Arial_MSFontService,sans-serif" font-size="56.6787" x="1063.38" y="1243.42">Pr</text><path d="M1531.81 1185.5C1531.98 1185.51 1532.15 1185.57 1532.31 1185.66 1535.41 1188.03 1538.3 1191.26 1540.99 1195.34 1543.69 1199.42 1545.87 1203.91 1547.55 1208.8 1549.23 1213.69 1550.1 1218.54 1550.15 1223.34L1550.15 1230.32C1550.1 1235.12 1549.23 1239.97 1547.55 1244.86 1545.87 1249.76 1543.69 1254.24 1540.99 1258.32 1538.3 1262.4 1535.41 1265.63 1532.31 1268 1532.15 1268.1 1531.98 1268.15 1531.81 1268.16 1531.6 1268.16 1531.41 1268.07 1531.24 1267.91 1531.08 1267.74 1530.99 1267.55 1530.98 1267.33 1530.99 1267.21 1531.02 1267.09 1531.09 1266.97 1531.15 1266.86 1531.23 1266.76 1531.32 1266.67 1534.21 1264.43 1536.73 1261.31 1538.88 1257.32 1541.02 1253.33 1542.69 1248.96 1543.87 1244.21 1545.06 1239.46 1545.66 1234.83 1545.68 1230.32L1545.68 1223.34C1545.66 1218.84 1545.06 1214.21 1543.87 1209.46 1542.69 1204.71 1541.02 1200.34 1538.88 1196.34 1536.73 1192.35 1534.21 1189.23 1531.32 1186.99 1531.23 1186.91 1531.15 1186.81 1531.09 1186.69 1531.02 1186.57 1530.99 1186.45 1530.98 1186.33 1530.99 1186.11 1531.08 1185.92 1531.24 1185.76 1531.41 1185.59 1531.6 1185.51 1531.81 1185.5ZM1175.42 1185.5C1175.63 1185.51 1175.82 1185.59 1175.99 1185.76 1176.15 1185.92 1176.24 1186.11 1176.25 1186.33 1176.24 1186.45 1176.21 1186.57 1176.14 1186.69 1176.08 1186.81 1176 1186.91 1175.92 1186.99 1173.02 1189.23 1170.5 1192.35 1168.36 1196.34 1166.21 1200.34 1164.55 1204.71 1163.36 1209.46 1162.17 1214.21 1161.57 1218.84 1161.56 1223.34L1161.56 1230.32C1161.57 1234.83 1162.17 1239.46 1163.36 1244.21 1164.55 1248.96 1166.21 1253.33 1168.36 1257.32 1170.5 1261.31 1173.02 1264.43 1175.92 1266.67 1176 1266.76 1176.08 1266.86 1176.14 1266.97 1176.21 1267.09 1176.24 1267.21 1176.25 1267.33 1176.24 1267.55 1176.15 1267.74 1175.99 1267.91 1175.82 1268.07 1175.63 1268.16 1175.42 1268.16 1175.25 1268.15 1175.08 1268.1 1174.92 1268 1171.82 1265.63 1168.93 1262.4 1166.24 1258.32 1163.54 1254.24 1161.36 1249.76 1159.68 1244.86 1158 1239.97 1157.14 1235.12 1157.08 1230.32L1157.08 1223.34C1157.14 1218.54 1158 1213.69 1159.68 1208.8 1161.36 1203.91 1163.54 1199.42 1166.24 1195.34 1168.93 1191.26 1171.82 1188.03 1174.92 1185.66 1175.08 1185.57 1175.25 1185.51 1175.42 1185.5Z" fill-rule="evenodd"/><path d="M1206.43 1213.83C1209.41 1213.88 1211.78 1214.56 1213.53 1215.87 1215.28 1217.19 1216.18 1218.89 1216.22 1220.97 1216.17 1222.64 1215.7 1223.94 1214.8 1224.86 1213.89 1225.79 1212.82 1226.26 1211.57 1226.27 1210.76 1226.28 1210.05 1226.04 1209.45 1225.57 1208.85 1225.1 1208.54 1224.36 1208.51 1223.37 1208.49 1223.06 1208.57 1222.61 1208.76 1222 1208.94 1221.4 1209.36 1220.78 1210 1220.14 1210.58 1219.58 1211.16 1219.25 1211.76 1219.12 1212.36 1219 1212.99 1218.96 1213.65 1218.98 1213.02 1217.86 1212.04 1217.02 1210.7 1216.47 1209.37 1215.92 1207.97 1215.65 1206.51 1215.65 1204.19 1215.7 1201.99 1216.49 1199.91 1218.03 1197.84 1219.57 1196.13 1221.54 1194.8 1223.95 1193.86 1225.71 1193.05 1227.66 1192.39 1229.79 1191.72 1231.91 1191.21 1233.95 1190.85 1235.88 1190.5 1237.82 1190.32 1239.37 1190.32 1240.56 1190.3 1243.11 1190.9 1245.24 1192.09 1246.95 1193.29 1248.66 1195.19 1249.54 1197.79 1249.61 1198.19 1249.66 1199.29 1249.56 1201.08 1249.3 1202.88 1249.05 1204.99 1248.34 1207.4 1247.17 1209.81 1246 1212.14 1244.08 1214.39 1241.39 1214.63 1241.06 1214.82 1240.84 1214.96 1240.72 1215.1 1240.6 1215.27 1240.55 1215.47 1240.56 1215.73 1240.57 1215.96 1240.69 1216.15 1240.91 1216.35 1241.13 1216.45 1241.37 1216.46 1241.63 1216.45 1242.07 1215.7 1243.06 1214.22 1244.62 1212.74 1246.17 1210.59 1247.66 1207.79 1249.11 1204.99 1250.55 1201.6 1251.32 1197.63 1251.42 1193.29 1251.3 1189.97 1249.9 1187.67 1247.21 1185.37 1244.53 1184.21 1241.25 1184.19 1237.4 1184.25 1233.42 1185.35 1229.65 1187.46 1226.09 1189.58 1222.52 1192.32 1219.61 1195.68 1217.34 1199.04 1215.08 1202.63 1213.91 1206.43 1213.83Z" fill-rule="evenodd"/><text fill="#000000" fill-opacity="0" font-family="Arial,Arial_MSFontService,sans-serif" font-size="37.5886" x="1184.19" y="1246.72">𝑐</text><path d="M1247.19 1257.08 1295.82 1257.08C1296.29 1257.09 1296.68 1257.25 1297 1257.56 1297.31 1257.87 1297.47 1258.26 1297.48 1258.73 1297.47 1259.2 1297.31 1259.59 1297 1259.9 1296.68 1260.21 1296.29 1260.37 1295.82 1260.39L1247.19 1260.39C1246.72 1260.37 1246.33 1260.21 1246.01 1259.9 1245.7 1259.59 1245.54 1259.2 1245.53 1258.73 1245.54 1258.26 1245.7 1257.87 1246.01 1257.56 1246.33 1257.25 1246.72 1257.09 1247.19 1257.08ZM1295.83 1198.18C1296.53 1198.15 1297.03 1198.47 1297.35 1199.12 1297.77 1199.99 1297.51 1200.72 1296.57 1201.3L1251.09 1222.8 1296.57 1244.29C1297.51 1244.88 1297.77 1245.6 1297.35 1246.47 1296.93 1247.34 1296.17 1247.61 1295.08 1247.28L1246.85 1224.46C1246.15 1224.07 1245.79 1223.52 1245.79 1222.8 1245.79 1222.08 1246.15 1221.52 1246.85 1221.14L1295.08 1198.31C1295.35 1198.23 1295.6 1198.18 1295.83 1198.18Z" fill-rule="evenodd"/><text fill="#000000" fill-opacity="0" font-family="Arial,Arial_MSFontService,sans-serif" font-size="62.2111" x="1245.53" y="1252.61">≤</text><path d="M1344.64 1213.83C1345.94 1213.75 1347.48 1214.12 1349.25 1214.93 1351.03 1215.74 1352.48 1217.48 1353.61 1220.14 1353.94 1219.46 1354.49 1218.63 1355.24 1217.66 1356 1216.68 1356.97 1215.81 1358.15 1215.04 1359.33 1214.28 1360.72 1213.88 1362.33 1213.83 1363.31 1213.82 1364.39 1213.97 1365.58 1214.29 1366.76 1214.61 1367.79 1215.17 1368.66 1215.97 1369.54 1216.77 1369.99 1217.88 1370.04 1219.31 1369.96 1220.96 1369.45 1222.17 1368.48 1222.95 1367.52 1223.74 1366.54 1224.12 1365.56 1224.12 1364.45 1224.08 1363.65 1223.76 1363.15 1223.16 1362.65 1222.56 1362.4 1221.92 1362.41 1221.21 1362.43 1220.18 1362.8 1219.24 1363.53 1218.39 1364.25 1217.53 1365.21 1216.98 1366.39 1216.74 1365.48 1216.22 1364.63 1215.9 1363.82 1215.79 1363.01 1215.67 1362.49 1215.63 1362.24 1215.65 1360.32 1215.73 1358.79 1216.42 1357.64 1217.71 1356.49 1219 1355.64 1220.41 1355.08 1221.95 1354.53 1223.48 1354.17 1224.64 1354.02 1225.44L1351.2 1236.82C1350.74 1238.61 1350.39 1240.06 1350.15 1241.16 1349.91 1242.26 1349.79 1243.25 1349.79 1244.12 1349.78 1245.59 1350.13 1246.85 1350.86 1247.92 1351.58 1248.99 1352.75 1249.55 1354.36 1249.61 1355.81 1249.71 1357.64 1249 1359.85 1247.5 1362.05 1245.99 1363.91 1243.07 1365.4 1238.73 1365.47 1238.44 1365.58 1238.21 1365.72 1238.06 1365.86 1237.9 1366.11 1237.82 1366.47 1237.82 1366.62 1237.8 1366.82 1237.84 1367.06 1237.92 1367.3 1238.01 1367.44 1238.25 1367.46 1238.65 1367.46 1239.46 1366.94 1240.87 1365.92 1242.88 1364.9 1244.89 1363.4 1246.79 1361.43 1248.57 1359.46 1250.35 1357.05 1251.3 1354.19 1251.42 1351.7 1251.35 1349.71 1250.68 1348.21 1249.42 1346.72 1248.16 1345.72 1246.72 1345.22 1245.12 1345.14 1245.35 1344.75 1245.97 1344.07 1246.97 1343.38 1247.98 1342.41 1248.95 1341.14 1249.9 1339.88 1250.85 1338.33 1251.35 1336.5 1251.42 1334.58 1251.43 1332.83 1251 1331.24 1250.12 1329.65 1249.24 1328.81 1247.85 1328.71 1245.95 1328.75 1244.59 1329.2 1243.45 1330.06 1242.55 1330.92 1241.64 1331.99 1241.18 1333.27 1241.14 1333.94 1241.12 1334.61 1241.33 1335.27 1241.75 1335.93 1242.18 1336.29 1242.94 1336.34 1244.04 1336.31 1245.22 1335.92 1246.2 1335.17 1246.99 1334.42 1247.79 1333.51 1248.29 1332.44 1248.52 1333.34 1249.04 1334.19 1249.36 1334.98 1249.47 1335.77 1249.58 1336.31 1249.63 1336.59 1249.61 1338.43 1249.57 1340.04 1248.77 1341.4 1247.22 1342.77 1245.66 1343.79 1243.58 1344.48 1240.97 1346.01 1235.22 1347.14 1230.8 1347.87 1227.7 1348.6 1224.6 1348.96 1222.43 1348.96 1221.21 1348.87 1218.88 1348.32 1217.35 1347.31 1216.63 1346.3 1215.91 1345.35 1215.58 1344.48 1215.65 1342.95 1215.55 1341.1 1216.27 1338.91 1217.79 1336.73 1219.31 1334.87 1222.22 1333.35 1226.52 1333.27 1226.89 1333.16 1227.13 1333 1227.26 1332.84 1227.39 1332.6 1227.45 1332.28 1227.44 1332.24 1227.45 1332.07 1227.42 1331.78 1227.33 1331.49 1227.25 1331.33 1227 1331.29 1226.61 1331.29 1225.8 1331.81 1224.38 1332.83 1222.37 1333.85 1220.36 1335.36 1218.46 1337.34 1216.68 1339.33 1214.9 1341.76 1213.95 1344.64 1213.83Z" fill-rule="evenodd"/><text fill="#000000" fill-opacity="0" font-family="Arial,Arial_MSFontService,sans-serif" font-size="37.5996" x="1328.71" y="1246.72">𝑥</text><path d="M1404.16 1257.08 1452.8 1257.08C1453.27 1257.09 1453.66 1257.25 1453.97 1257.56 1454.29 1257.87 1454.45 1258.26 1454.46 1258.73 1454.45 1259.2 1454.29 1259.59 1453.97 1259.9 1453.66 1260.21 1453.27 1260.37 1452.8 1260.39L1404.16 1260.39C1403.7 1260.37 1403.3 1260.21 1402.99 1259.9 1402.68 1259.59 1402.52 1259.2 1402.5 1258.73 1402.52 1258.26 1402.68 1257.87 1402.99 1257.56 1403.3 1257.25 1403.7 1257.09 1404.16 1257.08ZM1452.81 1198.18C1453.51 1198.15 1454.01 1198.47 1454.33 1199.12 1454.75 1199.99 1454.49 1200.72 1453.55 1201.3L1408.07 1222.8 1453.55 1244.29C1454.49 1244.88 1454.75 1245.6 1454.33 1246.47 1453.91 1247.34 1453.15 1247.61 1452.06 1247.28L1403.83 1224.46C1403.13 1224.07 1402.77 1223.52 1402.77 1222.8 1402.77 1222.08 1403.13 1221.52 1403.83 1221.14L1452.06 1198.31C1452.33 1198.23 1452.58 1198.18 1452.81 1198.18Z" fill-rule="evenodd"/><text fill="#000000" fill-opacity="0" font-family="Arial,Arial_MSFontService,sans-serif" font-size="62.2111" x="1402.5" y="1252.61">≤</text><path d="M1506.69 1215.65C1504.99 1215.68 1503.29 1216.39 1501.59 1217.8 1499.89 1219.2 1498.37 1221.14 1497.05 1223.62 1496.4 1224.97 1495.72 1226.8 1495.02 1229.11 1494.32 1231.42 1493.73 1233.75 1493.25 1236.09 1492.76 1238.44 1492.51 1240.34 1492.49 1241.8 1492.45 1243.54 1492.82 1245.25 1493.59 1246.92 1494.36 1248.59 1495.76 1249.48 1497.8 1249.61 1498.98 1249.65 1500.38 1249.23 1501.99 1248.37 1503.61 1247.51 1505.34 1245.96 1507.18 1243.71 1507.77 1243.06 1508.15 1242.56 1508.33 1242.21 1508.5 1241.86 1508.67 1241.33 1508.84 1240.64L1513 1224.37C1513.04 1224.16 1513.09 1223.93 1513.15 1223.69 1513.21 1223.45 1513.24 1223.21 1513.24 1222.96 1513.26 1222.71 1513.1 1222 1512.74 1220.84 1512.39 1219.68 1511.74 1218.54 1510.78 1217.43 1509.83 1216.32 1508.47 1215.73 1506.69 1215.65ZM1525.02 1192.92C1525.54 1192.96 1525.86 1193.11 1525.97 1193.37 1526.08 1193.64 1526.12 1193.79 1526.1 1193.83L1514.16 1241.8C1513.99 1242.46 1513.87 1243.05 1513.78 1243.58 1513.7 1244.1 1513.66 1244.84 1513.66 1245.79 1513.62 1246.67 1513.76 1247.52 1514.06 1248.32 1514.37 1249.12 1515.07 1249.55 1516.15 1249.61 1517.81 1249.51 1519.12 1248.47 1520.05 1246.48 1520.99 1244.49 1521.79 1242.1 1522.46 1239.31 1522.57 1238.74 1522.69 1238.35 1522.82 1238.13 1522.96 1237.91 1523.22 1237.81 1523.62 1237.82 1523.77 1237.8 1523.96 1237.83 1524.21 1237.92 1524.45 1238.01 1524.58 1238.25 1524.61 1238.65 1524.6 1238.69 1524.49 1239.18 1524.28 1240.11 1524.06 1241.05 1523.77 1242.14 1523.4 1243.41 1523.02 1244.67 1522.6 1245.82 1522.13 1246.87 1521.47 1248.22 1520.65 1249.31 1519.65 1250.14 1518.65 1250.97 1517.43 1251.4 1515.98 1251.42 1513.97 1251.38 1512.29 1250.78 1510.96 1249.62 1509.63 1248.46 1508.79 1246.99 1508.43 1245.21 1505.9 1248.04 1503.69 1249.81 1501.79 1250.52 1499.88 1251.23 1498.5 1251.53 1497.64 1251.42 1494.34 1251.36 1491.7 1250.12 1489.69 1247.71 1487.69 1245.3 1486.66 1242.12 1486.6 1238.15 1486.67 1234.03 1487.68 1230.14 1489.63 1226.46 1491.58 1222.78 1494.07 1219.77 1497.1 1217.44 1500.13 1215.11 1503.3 1213.91 1506.6 1213.83 1508.46 1213.86 1510.02 1214.36 1511.26 1215.33 1512.51 1216.3 1513.5 1217.57 1514.24 1219.14L1519.22 1199.47 1519.47 1197.8C1519.55 1197.38 1519.35 1197.04 1518.89 1196.79 1518.43 1196.53 1517.24 1196.4 1515.32 1196.39 1514.69 1196.41 1514.2 1196.37 1513.86 1196.27 1513.51 1196.17 1513.33 1195.88 1513.33 1195.4 1513.33 1194.87 1513.45 1194.48 1513.66 1194.24 1513.87 1194 1514.15 1193.86 1514.49 1193.83 1515.04 1193.76 1516.07 1193.66 1517.57 1193.52 1519.08 1193.38 1520.57 1193.24 1522.05 1193.12 1523.54 1192.99 1524.53 1192.93 1525.02 1192.92Z" fill-rule="evenodd"/><text fill="#000000" fill-opacity="0" font-family="Arial,Arial_MSFontService,sans-serif" font-size="58.5264" x="1486.6" y="1244.13">𝑑</text></g></svg>